<svg xmlns="http://www.w3.org/2000/svg" viewBox="0 0 560 380">
  <!-- Isotipo: montacargas + placa MR (para header) -->
  <g stroke="#17181c" stroke-width="14" stroke-linejoin="round" stroke-linecap="round">
    <rect x="360" y="20" width="26" height="240" fill="#17181c" stroke="none"/>
    <rect x="396" y="40" width="18" height="220" fill="#17181c" stroke="none"/>
    <path d="M 372 260 L 372 288 L 520 288" fill="none" stroke-width="18"/>
    <path d="M 80 160 L 90 120 Q 95 100 120 100 L 150 100 L 160 60 Q 165 35 195 32 L 265 28 Q 292 27 296 52 L 302 100 L 330 108 Q 356 116 358 145 L 362 208 Q 363 232 338 236 L 110 240 Q 82 240 80 212 Z" fill="#e8ef1f"/>
    <path d="M 175 100 L 185 58 Q 188 46 202 45 L 258 42 Q 270 42 272 54 L 278 102 L 246 130 L 196 130 Z" fill="#ffffff"/>
    <rect x="112" y="58" width="22" height="46" rx="8" fill="#17181c" stroke="none"/>
    <ellipse cx="130" cy="112" rx="34" ry="16" fill="#17181c" stroke="none"/>
    <path d="M 96 166 L 150 162 M 96 186 L 150 183 M 96 206 L 150 204" stroke-width="8" fill="none"/>
    <circle cx="140" cy="244" r="42" fill="#17181c"/>
    <circle cx="140" cy="244" r="16" fill="#ffffff" stroke="none"/>
    <circle cx="308" cy="244" r="42" fill="#17181c"/>
    <circle cx="308" cy="244" r="16" fill="#ffffff" stroke="none"/>
    <path d="M 60 288 L 340 288" stroke-width="12"/>
  </g>
  <g>
    <rect x="392" y="136" width="120" height="96" rx="26" fill="#ffffff" stroke="#17181c" stroke-width="12"/>
    <text x="452" y="206" font-family="Arial Black, Arial, sans-serif" font-size="58" font-weight="900" text-anchor="middle" fill="#17181c">MR</text>
  </g>
</svg>
